{
    "asset" : {
        "generator" : "Khronos glTF Blender I/O v0.9.36",
        "version" : "2.0"
    },
    "scene" : 0,
    "scenes" : [
        {
            "name" : "Scene",
            "nodes" : [
                2
            ]
        }
    ],
    "nodes" : [
        {
            "mesh" : 0,
            "name" : "character_witchHat",
            "rotation" : [
                -0.1316177397966385,
                0,
                0,
                0.9913005232810974
            ],
            "translation" : [
                0,
                1.4714275598526,
                -0.07084514200687408
            ]
        },
        {
            "mesh" : 1,
            "name" : "character_witchHead",
            "translation" : [
                0,
                0.7037110328674316,
                0
            ]
        },
        {
            "children" : [
                0,
                1
            ],
            "mesh" : 2,
            "name" : "character_witch"
        }
    ],
    "materials" : [
        {
            "doubleSided" : true,
            "name" : "Purple",
            "pbrMetallicRoughness" : {
                "baseColorFactor" : [
                    0.2597089111804962,
                    0.052060261368751526,
                    0.5798950791358948,
                    1
                ],
                "metallicFactor" : 0,
                "roughnessFactor" : 0.20000000298023224
            }
        },
        {
            "name" : "Black",
            "pbrMetallicRoughness" : {
                "baseColorFactor" : [
                    0.019794002175331116,
                    0.03207586705684662,
                    0.037408243864774704,
                    1
                ],
                "metallicFactor" : 0,
                "roughnessFactor" : 0.20000000298023224
            }
        },
        {
            "name" : "Yellow",
            "pbrMetallicRoughness" : {
                "baseColorFactor" : [
                    1,
                    0.5052202939987183,
                    0.017695415765047073,
                    1
                ],
                "metallicFactor" : 0,
                "roughnessFactor" : 0.20000000298023224
            }
        },
        {
            "doubleSided" : true,
            "name" : "GreenLight",
            "pbrMetallicRoughness" : {
                "baseColorFactor" : [
                    0.42695045471191406,
                    0.7029160857200623,
                    0.20689110457897186,
                    1
                ],
                "metallicFactor" : 0,
                "roughnessFactor" : 0.5
            }
        },
        {
            "doubleSided" : true,
            "name" : "Green",
            "pbrMetallicRoughness" : {
                "baseColorFactor" : [
                    0.0653415098786354,
                    0.5005427598953247,
                    0.2656450867652893,
                    1
                ],
                "metallicFactor" : 0,
                "roughnessFactor" : 0.4000000059604645
            }
        }
    ],
    "meshes" : [
        {
            "name" : "Cube.004",
            "primitives" : [
                {
                    "attributes" : {
                        "POSITION" : 0,
                        "NORMAL" : 1,
                        "TEXCOORD_0" : 2
                    },
                    "indices" : 3,
                    "material" : 0
                },
                {
                    "attributes" : {
                        "POSITION" : 4,
                        "NORMAL" : 5,
                        "TEXCOORD_0" : 6
                    },
                    "indices" : 7,
                    "material" : 1
                },
                {
                    "attributes" : {
                        "POSITION" : 8,
                        "NORMAL" : 9,
                        "TEXCOORD_0" : 10
                    },
                    "indices" : 11,
                    "material" : 2
                }
            ]
        },
        {
            "name" : "Cube.001",
            "primitives" : [
                {
                    "attributes" : {
                        "POSITION" : 12,
                        "NORMAL" : 13,
                        "TEXCOORD_0" : 14
                    },
                    "indices" : 15,
                    "material" : 1
                },
                {
                    "attributes" : {
                        "POSITION" : 16,
                        "NORMAL" : 17,
                        "TEXCOORD_0" : 18
                    },
                    "indices" : 19,
                    "material" : 3
                },
                {
                    "attributes" : {
                        "POSITION" : 20,
                        "NORMAL" : 21,
                        "TEXCOORD_0" : 22
                    },
                    "indices" : 23,
                    "material" : 4
                }
            ]
        },
        {
            "name" : "Cube.000",
            "primitives" : [
                {
                    "attributes" : {
                        "POSITION" : 24,
                        "NORMAL" : 25,
                        "TEXCOORD_0" : 26
                    },
                    "indices" : 27,
                    "material" : 0
                },
                {
                    "attributes" : {
                        "POSITION" : 28,
                        "NORMAL" : 29,
                        "TEXCOORD_0" : 30
                    },
                    "indices" : 31,
                    "material" : 3
                },
                {
                    "attributes" : {
                        "POSITION" : 32,
                        "NORMAL" : 33,
                        "TEXCOORD_0" : 34
                    },
                    "indices" : 35,
                    "material" : 1
                },
                {
                    "attributes" : {
                        "POSITION" : 36,
                        "NORMAL" : 37,
                        "TEXCOORD_0" : 38
                    },
                    "indices" : 39,
                    "material" : 2
                }
            ]
        }
    ],
    "accessors" : [
        {
            "bufferView" : 0,
            "componentType" : 5126,
            "count" : 224,
            "max" : [
                0.6167936325073242,
                0.7282768487930298,
                0.6167936325073242
            ],
            "min" : [
                -0.616793692111969,
                -0.014371473342180252,
                -0.6167935729026794
            ],
            "type" : "VEC3"
        },
        {
            "bufferView" : 1,
            "componentType" : 5126,
            "count" : 224,
            "type" : "VEC3"
        },
        {
            "bufferView" : 2,
            "componentType" : 5126,
            "count" : 224,
            "type" : "VEC2"
        },
        {
            "bufferView" : 3,
            "componentType" : 5123,
            "count" : 1002,
            "type" : "SCALAR"
        },
        {
            "bufferView" : 4,
            "componentType" : 5126,
            "count" : 50,
            "max" : [
                0.3281235992908478,
                0.23422420024871826,
                0.3281235992908478
            ],
            "min" : [
                -0.3281234800815582,
                0.10587307065725327,
                -0.32812339067459106
            ],
            "type" : "VEC3"
        },
        {
            "bufferView" : 5,
            "componentType" : 5126,
            "count" : 50,
            "type" : "VEC3"
        },
        {
            "bufferView" : 6,
            "componentType" : 5126,
            "count" : 50,
            "type" : "VEC2"
        },
        {
            "bufferView" : 7,
            "componentType" : 5123,
            "count" : 144,
            "type" : "SCALAR"
        },
        {
            "bufferView" : 8,
            "componentType" : 5126,
            "count" : 104,
            "max" : [
                0.11645141988992691,
                0.25933030247688293,
                0.3620646893978119
            ],
            "min" : [
                -0.11645141988992691,
                0.09746178984642029,
                0.28471609950065613
            ],
            "type" : "VEC3"
        },
        {
            "bufferView" : 9,
            "componentType" : 5126,
            "count" : 104,
            "type" : "VEC3"
        },
        {
            "bufferView" : 10,
            "componentType" : 5126,
            "count" : 104,
            "type" : "VEC2"
        },
        {
            "bufferView" : 11,
            "componentType" : 5123,
            "count" : 456,
            "type" : "SCALAR"
        },
        {
            "bufferView" : 12,
            "componentType" : 5126,
            "count" : 917,
            "max" : [
                0.5305818319320679,
                0.9910367131233215,
                0.4810168743133545
            ],
            "min" : [
                -0.5305819511413574,
                -0.09645240008831024,
                -0.5305817723274231
            ],
            "type" : "VEC3"
        },
        {
            "bufferView" : 13,
            "componentType" : 5126,
            "count" : 917,
            "type" : "VEC3"
        },
        {
            "bufferView" : 14,
            "componentType" : 5126,
            "count" : 917,
            "type" : "VEC2"
        },
        {
            "bufferView" : 15,
            "componentType" : 5123,
            "count" : 4032,
            "type" : "SCALAR"
        },
        {
            "bufferView" : 16,
            "componentType" : 5126,
            "count" : 623,
            "max" : [
                0.49999964237213135,
                0.9339144229888916,
                0.7571365833282471
            ],
            "min" : [
                -0.4999997615814209,
                0,
                -0.49999961256980896
            ],
            "type" : "VEC3"
        },
        {
            "bufferView" : 17,
            "componentType" : 5126,
            "count" : 623,
            "type" : "VEC3"
        },
        {
            "bufferView" : 18,
            "componentType" : 5126,
            "count" : 623,
            "type" : "VEC2"
        },
        {
            "bufferView" : 19,
            "componentType" : 5123,
            "count" : 2880,
            "type" : "SCALAR"
        },
        {
            "bufferView" : 20,
            "componentType" : 5126,
            "count" : 89,
            "max" : [
                0.14474673569202423,
                0.4735201597213745,
                0.6320375204086304
            ],
            "min" : [
                0.01807904988527298,
                0.34577247500419617,
                0.5095871090888977
            ],
            "type" : "VEC3"
        },
        {
            "bufferView" : 21,
            "componentType" : 5126,
            "count" : 89,
            "type" : "VEC3"
        },
        {
            "bufferView" : 22,
            "componentType" : 5126,
            "count" : 89,
            "type" : "VEC2"
        },
        {
            "bufferView" : 23,
            "componentType" : 5123,
            "count" : 360,
            "type" : "SCALAR"
        },
        {
            "bufferView" : 24,
            "componentType" : 5126,
            "count" : 371,
            "max" : [
                0.4689466655254364,
                0.7255613207817078,
                0.37837982177734375
            ],
            "min" : [
                -0.4689467251300812,
                -2.2351741790771484e-08,
                -0.37837979197502136
            ],
            "type" : "VEC3"
        },
        {
            "bufferView" : 25,
            "componentType" : 5126,
            "count" : 371,
            "type" : "VEC3"
        },
        {
            "bufferView" : 26,
            "componentType" : 5126,
            "count" : 371,
            "type" : "VEC2"
        },
        {
            "bufferView" : 27,
            "componentType" : 5123,
            "count" : 1572,
            "type" : "SCALAR"
        },
        {
            "bufferView" : 28,
            "componentType" : 5126,
            "count" : 128,
            "max" : [
                0.4689466655254364,
                0.7108677625656128,
                0.21554212272167206
            ],
            "min" : [
                -0.4689467251300812,
                0.15690076351165771,
                -0.09058662503957748
            ],
            "type" : "VEC3"
        },
        {
            "bufferView" : 29,
            "componentType" : 5126,
            "count" : 128,
            "type" : "VEC3"
        },
        {
            "bufferView" : 30,
            "componentType" : 5126,
            "count" : 128,
            "type" : "VEC2"
        },
        {
            "bufferView" : 31,
            "componentType" : 5123,
            "count" : 528,
            "type" : "SCALAR"
        },
        {
            "bufferView" : 32,
            "componentType" : 5126,
            "count" : 74,
            "max" : [
                0.33807387948036194,
                0.5959346294403076,
                0.3499997556209564
            ],
            "min" : [
                -0.33807384967803955,
                0.1176842451095581,
                -0.3499997556209564
            ],
            "type" : "VEC3"
        },
        {
            "bufferView" : 33,
            "componentType" : 5126,
            "count" : 74,
            "type" : "VEC3"
        },
        {
            "bufferView" : 34,
            "componentType" : 5126,
            "count" : 74,
            "type" : "VEC2"
        },
        {
            "bufferView" : 35,
            "componentType" : 5123,
            "count" : 186,
            "type" : "SCALAR"
        },
        {
            "bufferView" : 36,
            "componentType" : 5126,
            "count" : 104,
            "max" : [
                0.08333747833967209,
                0.26134997606277466,
                0.3674989342689514
            ],
            "min" : [
                -0.08333747833967209,
                0.14549948275089264,
                0.3226909339427948
            ],
            "type" : "VEC3"
        },
        {
            "bufferView" : 37,
            "componentType" : 5126,
            "count" : 104,
            "type" : "VEC3"
        },
        {
            "bufferView" : 38,
            "componentType" : 5126,
            "count" : 104,
            "type" : "VEC2"
        },
        {
            "bufferView" : 39,
            "componentType" : 5123,
            "count" : 456,
            "type" : "SCALAR"
        }
    ],
    "bufferViews" : [
        {
            "buffer" : 0,
            "byteLength" : 2688,
            "byteOffset" : 0
        },
        {
            "buffer" : 0,
            "byteLength" : 2688,
            "byteOffset" : 2688
        },
        {
            "buffer" : 0,
            "byteLength" : 1792,
            "byteOffset" : 5376
        },
        {
            "buffer" : 0,
            "byteLength" : 2004,
            "byteOffset" : 7168
        },
        {
            "buffer" : 0,
            "byteLength" : 600,
            "byteOffset" : 9172
        },
        {
            "buffer" : 0,
            "byteLength" : 600,
            "byteOffset" : 9772
        },
        {
            "buffer" : 0,
            "byteLength" : 400,
            "byteOffset" : 10372
        },
        {
            "buffer" : 0,
            "byteLength" : 288,
            "byteOffset" : 10772
        },
        {
            "buffer" : 0,
            "byteLength" : 1248,
            "byteOffset" : 11060
        },
        {
            "buffer" : 0,
            "byteLength" : 1248,
            "byteOffset" : 12308
        },
        {
            "buffer" : 0,
            "byteLength" : 832,
            "byteOffset" : 13556
        },
        {
            "buffer" : 0,
            "byteLength" : 912,
            "byteOffset" : 14388
        },
        {
            "buffer" : 0,
            "byteLength" : 11004,
            "byteOffset" : 15300
        },
        {
            "buffer" : 0,
            "byteLength" : 11004,
            "byteOffset" : 26304
        },
        {
            "buffer" : 0,
            "byteLength" : 7336,
            "byteOffset" : 37308
        },
        {
            "buffer" : 0,
            "byteLength" : 8064,
            "byteOffset" : 44644
        },
        {
            "buffer" : 0,
            "byteLength" : 7476,
            "byteOffset" : 52708
        },
        {
            "buffer" : 0,
            "byteLength" : 7476,
            "byteOffset" : 60184
        },
        {
            "buffer" : 0,
            "byteLength" : 4984,
            "byteOffset" : 67660
        },
        {
            "buffer" : 0,
            "byteLength" : 5760,
            "byteOffset" : 72644
        },
        {
            "buffer" : 0,
            "byteLength" : 1068,
            "byteOffset" : 78404
        },
        {
            "buffer" : 0,
            "byteLength" : 1068,
            "byteOffset" : 79472
        },
        {
            "buffer" : 0,
            "byteLength" : 712,
            "byteOffset" : 80540
        },
        {
            "buffer" : 0,
            "byteLength" : 720,
            "byteOffset" : 81252
        },
        {
            "buffer" : 0,
            "byteLength" : 4452,
            "byteOffset" : 81972
        },
        {
            "buffer" : 0,
            "byteLength" : 4452,
            "byteOffset" : 86424
        },
        {
            "buffer" : 0,
            "byteLength" : 2968,
            "byteOffset" : 90876
        },
        {
            "buffer" : 0,
            "byteLength" : 3144,
            "byteOffset" : 93844
        },
        {
            "buffer" : 0,
            "byteLength" : 1536,
            "byteOffset" : 96988
        },
        {
            "buffer" : 0,
            "byteLength" : 1536,
            "byteOffset" : 98524
        },
        {
            "buffer" : 0,
            "byteLength" : 1024,
            "byteOffset" : 100060
        },
        {
            "buffer" : 0,
            "byteLength" : 1056,
            "byteOffset" : 101084
        },
        {
            "buffer" : 0,
            "byteLength" : 888,
            "byteOffset" : 102140
        },
        {
            "buffer" : 0,
            "byteLength" : 888,
            "byteOffset" : 103028
        },
        {
            "buffer" : 0,
            "byteLength" : 592,
            "byteOffset" : 103916
        },
        {
            "buffer" : 0,
            "byteLength" : 372,
            "byteOffset" : 104508
        },
        {
            "buffer" : 0,
            "byteLength" : 1248,
            "byteOffset" : 104880
        },
        {
            "buffer" : 0,
            "byteLength" : 1248,
            "byteOffset" : 106128
        },
        {
            "buffer" : 0,
            "byteLength" : 832,
            "byteOffset" : 107376
        },
        {
            "buffer" : 0,
            "byteLength" : 912,
            "byteOffset" : 108208
        }
    ],
    "buffers" : [
        {
            "byteLength" : 109120,
            "uri" : "data:application/octet-stream;base64,"
        }
    ]
}
